<svg xmlns="http://www.w3.org/2000/svg" id="Logotipos" viewBox="0 0 1000 1000"><defs><style>.cls-2{fill:#efefef}.cls-3{fill:#008282}.cls-5{fill:#4429cc}</style></defs><path d="M552.12 524.41h10c0 5.46 5 8.98 12.5 8.98 7.05 0 11.71-3.3 11.71-7.96 0-12.5-33.31-5.91-33.31-26.37 0-10.57 8.41-17.51 21.03-17.51s21.37 6.82 21.37 17.16h-10c0-5-4.55-8.3-11.48-8.3s-10.91 3.07-10.91 7.5c0 12.16 33.31 5.68 33.31 26.49 0 10.68-8.64 17.85-21.82 17.85s-22.39-7.16-22.39-17.85ZM605.55 511.9c0-17.28 12.39-30.35 28.98-30.35 9.66 0 17.62 4.55 22.51 11.82v-10.46h9.78v42.74c0 3.52 2.27 5.8 5.8 5.8h1.14v9.43h-3.07c-7.84 0-12.5-3.75-13.41-10.68-4.89 7.39-12.96 12.05-22.73 12.05-16.59 0-28.98-13.07-28.98-30.35Zm51.49 0c0-11.94-8.87-20.92-20.69-20.92s-20.8 8.98-20.8 20.92 8.87 20.92 20.8 20.92 20.69-8.98 20.69-20.92ZM685.45 526.11v-67.07h9.78v65.02c0 4.55 2.84 7.39 7.5 7.39h3.3v9.43h-4.77c-10.23 0-15.8-5.34-15.8-14.78ZM714.55 519.4v-36.49h9.78v33.65c0 9.78 6.25 16.25 15.91 16.25s16.94-6.59 16.94-16.48v-33.42h9.78v42.74c0 3.52 2.16 5.8 5.8 5.8h1.02v9.43h-2.96c-7.27 0-11.82-3.18-13.18-9.09-4.43 6.71-11.48 10.46-20.46 10.46-13.53 0-22.62-9.09-22.62-22.85ZM780.93 511.9c0-17.28 12.39-30.35 28.98-30.35 9.66 0 17.62 4.55 22.51 11.82v-34.33h9.78v66.61c0 3.52 2.27 5.8 5.8 5.8h1.14v9.43h-3.07c-7.84 0-12.5-3.75-13.41-10.68-4.89 7.39-12.96 12.05-22.73 12.05-16.59 0-28.98-13.07-28.98-30.35Zm51.49 0c0-11.94-8.87-20.92-20.69-20.92s-20.8 8.98-20.8 20.92 8.87 20.92 20.8 20.92 20.69-8.98 20.69-20.92Z" class="cls-3"/><path d="M325.43 524.75v-65.7h12.73v62.86c0 4.21 2.62 6.71 6.82 6.71h3.52v12.28h-5.34c-11.59 0-17.73-5.68-17.73-16.14ZM353.16 511.9c0-17.28 13.3-30.35 30.92-30.35s31.03 13.07 31.03 30.46c0 1.59-.11 3.3-.34 4.77H366.8c1.93 8.41 8.75 13.98 17.85 13.98 6.71 0 12.5-2.96 15.46-7.39h14.1c-4.66 11.25-16.03 18.87-29.78 18.87-17.96 0-31.26-13.07-31.26-30.35Zm13.76-5.57h34.56c-1.93-7.96-8.75-13.3-17.39-13.3s-15.12 5.23-17.16 13.3ZM438.41 511.79l-21.14-28.87h15.57l14.32 20.23 14.32-20.23h15.46l-21.14 28.87 8.64 10.69c3.07 3.98 6.93 6.14 11.25 6.14h3.3v12.28h-4.77c-8.52 0-15-3.52-20.46-12.16l-6.59-8.87-14.78 21.03h-15.46l21.48-29.1ZM527.19 482.92v30.12c0 8.53-5.8 14.1-14.44 14.1-8.18 0-13.53-5.46-13.53-13.87v-30.35h-12.73v34.1c0 13.53 8.87 22.39 22.17 22.39 7.73 0 14.09-2.96 18.53-8.53v7.5c0 8.41-6.02 13.98-13.98 13.98v11.47c15.57-.1 26.71-10.41 26.71-26.02v-54.9h-12.73Z" class="cls-2"/><rect width="46.52" height="156.14" x="199.32" y="421.93" class="cls-2" rx="2.97" ry="2.97" transform="rotate(135 222.578 500.002)"/><path d="m183.82 547.9-32.89-32.89 55.2-31.46 32.9 32.9-55.21 31.45z" style="fill:#9d90fc"/><path d="m183.82 547.9-.05 22.51c.78.01 1.56-.27 2.15-.86l53.11-53.11-55.2 31.45Z" style="fill:#27198e"/><path d="m183.77 570.42.05-22.51-32.9-32.9-.05 22.48c0 .73.28 1.42.76 1.97l30.1 30.1c.57.57 1.3.85 2.04.86ZM292.13 459.14l-28.7-28.7a2.97 2.97 0 0 0-4.2 0l-53.11 53.11 32.9 32.9 53.11-53.11a2.97 2.97 0 0 0 0-4.2Z" class="cls-5"/></svg>